#N canvas 392 292 961 487 10;
#X msg 18 54 close;
#X msg 4 5 devices;
#X obj 5 131 bng 15 250 50 0 empty empty empty 17 7 0 10 #fcfcfc #000000 #000000;
#X obj 5 353 list trim;
#X floatatom 5 445 5 0 0 0 - - - 0;
#X floatatom 61 446 5 0 0 0 - - - 0;
#X obj 84 258 list tosymbol;
#X obj 74 154 list prepend;
#X obj 157 154 t l;
#X obj 5 188 list append;
#X obj 5 104 select 13 10;
#X text 750 446 Made by Niccolo' Granieri;
#X text 663 217 Help - Find Externals \, download: Comport;
#X obj 5 318 fudiparse;
#X msg 11 29 open 1;
#X obj 5 77 comport 1 9600;
#X obj 5 409 route a;
#X obj 61 410 route b;
#X symbolatom 84 283 9 0 0 0 - - - 0;
#X listbox 84 213 16 0 0 0 - - - 0;
#X obj 84 303 print;
#X text 192 4 << Lista todos los dispositivos disponibles en los puertos serie, f 65;
#X text 192 28 << Elija el puerto correcto sustituyendo el número por el número de puerto, f 76;
#X text 192 53 << Cerrar la conexión (necesario para recompilar la placa);
#X text 192 76 << Los números ASCII se leen de uno en uno;
#X text 192 103 << Divide el "Carriege Return" (13) y el salto de línea (10);
#X text 192 153 << Añade en secuencia todos los caracteres;
#X text 192 187 << Añadir sólo cuando se envía el mensaje completo;
#X text 189 258 << Convierte números ASCII en un símbolo;
#X text 189 277 << Ahora podemos ver los datos entrantes;
#X text 512 197 Este patch necesita la librería externa Comport para funcionar., f 65;
#X text 192 226 << Imprime la lista de datos;
#X obj 84 233 print append;
#X text 188 319 << Convertir los números ascii en una lista (cortesía de ingox), f 64;
#X text 192 344 << Elimina la lista de palabras del principio para tener sólo el mensaje en serie, f 66;
#X text 192 414 << Enrutar los mensajes serie;
#X connect 0 0 15 0;
#X connect 1 0 15 0;
#X connect 2 0 7 1;
#X connect 2 0 9 0;
#X connect 3 0 16 0;
#X connect 3 0 17 0;
#X connect 6 0 18 0;
#X connect 7 0 9 1;
#X connect 7 0 8 0;
#X connect 8 0 7 1;
#X connect 9 0 13 0;
#X connect 9 0 19 0;
#X connect 9 0 6 0;
#X connect 10 0 2 0;
#X connect 10 2 7 0;
#X connect 13 0 3 0;
#X connect 14 0 15 0;
#X connect 15 0 10 0;
#X connect 16 0 4 0;
#X connect 17 0 5 0;
#X connect 18 0 20 0;
#X connect 19 0 32 0;
#X coords 0 487 1 486 85 60 0;
