#N canvas 0 0 1440 872 10;
#X text 25 22 pod ------------------------------------------------------------------------------------------------------------------------------------------------------------------------ Name Pin Aliases Type Variants ------------------------------------------------------------------------------------------------------------------------------------------------------------------------ sw1 27 switch \, button \, switch1 \, button1 Switch sw1_press \, sw1_fall \, sw1_seconds sw2 28 switch2 \, button2 Switch sw2_press \, sw2_fall \, sw2_seconds knob1 21 knob \, ctrl \, ctrl1 Voltage Input --- knob2 15 ctrl2 Voltage Input --- encoder 26 \, 25 \, 13 --- Encoder encoder_press \, encoder_rise \, encoder_fall \, encoder_seconds led1 20 \, 19 \, 18 led RGB LED led1_red \, led1_green \, led1_blue \, led1_white led2 17 \, 24 \, 23 --- RGB LED led2_red \, led2_green \, led2_blue \, led2_white gatein gate \, gate1 --- Gate In gatein_trig, f 179;
#X obj 711 525 dac~;
#X obj 711 450 osc~;
#X obj 711 485 *~;
#X obj 856 364 r Button1 @hv_param;
#X obj 826 394 t b b;
#X msg 896 432 1;
#X msg 825 430 0 500;
#X obj 711 270 r Knob1 @hv_param;
#X obj 711 375 * 2000;
#X text 456 366 knob1 adjusts left pitch;
#X text 456 387 button1 triggers left envelope;
#X obj 660 244 vsl 15 128 0 1 0 0 empty empty empty 0 -9 0 10 #fcfcfc #000000 #000000 0 1;
#X obj 711 416 +~;
#X obj 826 365 bng 15 250 50 0 empty empty empty 17 7 0 10 #fcfcfc #000000 #000000;
#X obj 825 471 line~;
#X obj 876 207 r button1_press @hv_param;
#X obj 876 273 s led1 @hv_param;
#X connect 2 0 3 0;
#X connect 3 0 1 0;
#X connect 4 0 5 0;
#X connect 5 0 7 0;
#X connect 5 1 6 0;
#X connect 6 0 15 0;
#X connect 7 0 15 0;
#X connect 8 0 9 0;
#X connect 9 0 13 0;
#X connect 12 0 9 0;
#X connect 13 0 2 0;
#X connect 14 0 5 0;
#X connect 15 0 3 1;
#X connect 16 0 17 0;
