#N canvas 0 0 1440 872 10;
#X obj 711 485 *~;
#X text 456 366 knob1 adjusts left pitch;
#X text 456 387 button1 triggers left envelope;
#X obj 711 171 r ctrl1 @hv_param;
#X obj 893 170 r ctrl2 @hv_param;
#X obj 711 525 dac~ 1 2;
#X obj 712 375 osc~ 1000;
#X obj 712 299 * 1000;
#X obj 839 299 * 1000;
#X connect 0 0 5 0;
#X connect 0 0 5 1;
#X connect 3 0 7 0;
#X connect 4 0 8 0;
#X connect 6 0 0 0;
#X connect 7 0 6 0;
#X connect 8 0 0 1;
