#N canvas 1 1 1440 872 10;
#X obj 711 525 dac~;
#X obj 711 485 *~;
#X obj 856 364 r Button1 @hv_param;
#X obj 826 394 t b b;
#X msg 896 432 1;
#X msg 825 430 0 500;
#X obj 711 270 r Knob1 @hv_param;
#X obj 711 375 * 2000;
#X text 456 366 knob1 adjusts left pitch;
#X text 456 387 button1 triggers left envelope;
#X obj 660 244 vsl 15 128 0 1 0 0 empty empty empty 0 -9 0 10 #fcfcfc #000000 #000000 0 1;
#X obj 711 416 +~;
#X obj 826 365 bng 15 250 50 0 empty empty empty 17 7 0 10 #fcfcfc #000000 #000000;
#X obj 825 471 line~;
#X obj 711 450 osc~ 500;
#X obj 344 200 print;
#X obj 312 162 r button1_press @hv_param;
#X obj 484 163 r button2_press @hv_param;
#X obj 312 228 s led1 @hv_param;
#X obj 484 230 s led2 @hv_param;
#X obj 498 199 print;
#X obj 729 306 print;
#X connect 1 0 0 0;
#X connect 2 0 3 0;
#X connect 3 0 5 0;
#X connect 3 1 4 0;
#X connect 4 0 13 0;
#X connect 5 0 13 0;
#X connect 6 0 7 0;
#X connect 6 0 21 0;
#X connect 7 0 11 0;
#X connect 10 0 7 0;
#X connect 11 0 14 0;
#X connect 12 0 3 0;
#X connect 13 0 1 1;
#X connect 14 0 1 0;
#X connect 16 0 18 0;
#X connect 16 0 15 0;
#X connect 17 0 19 0;
#X connect 17 0 20 0;
