#N canvas 0 0 1440 872 12;
#X obj 61 62 loadbang;
#X obj 68 129 metro 1000;
#X floatatom 70 214 5 0 0 0 - - - 0;
#X obj 73 286 * 20;
#X obj 70 191 i;
#X obj 132 191 + 1;
#X msg 153 129 -1;
#X obj 151 510 noise~;
#X obj 201 589 *~;
#X obj 73 322 abs;
#X floatatom 70 359 5 0 0 0 - - - 0;
#X msg 176 451 1;
#X obj 220 510 osc~ 10;
#X obj 231 329 % 30;
#X floatatom 174 371 5 0 0 0 - - - 0;
#X floatatom 318 352 5 0 0 0 - - - 0;
#X floatatom 227 451 5 0 0 0 - - - 0;
#X obj 232 393 line 2000;
#X msg 231 352 \$1 1000;
#X obj 258 259 random 20;
#X obj 301 708 bp~ 5000 6;
#X obj 335 622 line;
#X obj 444 616 loadbang;
#X obj 582 855 dac~ 1 2;
#X floatatom 331 648 5 0 0 0 - - - 0;
#X floatatom 439 676 5 0 0 0 - - - 0;
#X floatatom 426 750 5 0 0 0 - - - 0;
#X obj 302 783 *~ 1;
#X obj 161 54 sel 0 1;
#X obj 161 31 random 1;
#X msg 200 149 1;
#X obj 340 515 random 2000;
#X obj 265 137 tgl 19 0 empty empty empty 0 -10 0 12 #fcfcfc #000000 #000000 0 1;
#X obj 258 204 metro 5000;
#X msg 336 597 \$1 1000;
#X obj 466 192 random 2000;
#X obj 334 563 + 4000;
#X msg 403 666 8;
#X obj 501 500 metro 5000;
#X obj 500 549 random 100;
#X obj 591 544 random 5000;
#X obj 595 574 + 5000;
#X obj 522 618 line;
#X obj 498 464 tgl 19 0 empty empty empty 0 -10 0 12 #fcfcfc #000000 #000000 0 1;
#X floatatom 580 695 5 0 0 0 - - - 0;
#X text 417 388 random volumen;
#X obj 466 230 + 10000;
#X floatatom 457 287 5 0 0 0 - - - 0;
#X obj 509 693 / 100;
#X obj 961 680 *~ 0.5;
#X obj 1070 790 *~;
#X obj 1110 310 bng 19 250 50 0 empty empty empty 0 -10 0 12 #fcfcfc #000000 #000000;
#X obj 1167 364 bng 19 250 50 0 empty empty empty 0 -10 0 12 #fcfcfc #000000 #000000;
#X obj 962 548 osc~ 4500;
#X obj 1020 604 osc~ 9000;
#X obj 1095 636 osc~ 13000;
#X obj 881 845 dac~ 1 2;
#X obj 1144 481 bng 19 250 50 0 empty empty empty 0 -10 0 12 #fcfcfc #000000 #000000;
#X obj 1241 484 bng 19 250 50 0 empty empty empty 0 -10 0 12 #fcfcfc #000000 #000000;
#X obj 1344 485 bng 19 250 50 0 empty empty empty 0 -10 0 12 #fcfcfc #000000 #000000;
#X obj 1441 488 bng 19 250 50 0 empty empty empty 0 -10 0 12 #fcfcfc #000000 #000000;
#X obj 1576 489 bng 19 250 50 0 empty empty empty 0 -10 0 12 #fcfcfc #000000 #000000;
#X obj 1673 492 bng 19 250 50 0 empty empty empty 0 -10 0 12 #fcfcfc #000000 #000000;
#X obj 1125 278 metro 500;
#X obj 1125 241 tgl 19 0 empty empty empty 0 -10 0 12 #fcfcfc #000000 #000000 0 1;
#X msg 1167 395 0 20;
#X obj 1144 448 delay 20;
#X msg 1242 516 0 20;
#X obj 1344 452 delay 20;
#X msg 1442 520 0 20;
#X obj 1576 456 delay 20;
#X msg 1674 524 0 20;
#X msg 1110 351 1 25;
#X msg 1138 518 1 25;
#X msg 1338 522 1 25;
#X msg 1570 526 1 25;
#X obj 1180 635 line~;
#X obj 1167 332 delay 30;
#X obj 1242 453 delay 30;
#X obj 1442 457 delay 30;
#X obj 1674 461 delay 30;
#X obj 1019 682 *~ 0.5;
#X obj 1091 686 *~ 0.5;
#X obj 1042 720 *~ 0.5;
#X floatatom 1117 662 5 0 0 0 - - - 0;
#X floatatom 1052 634 5 0 0 0 - - - 0;
#X floatatom 1002 577 5 0 0 0 - - - 0;
#X obj 1116 89 tgl 19 0 empty empty empty 0 -10 0 12 #fcfcfc #000000 #000000 0 1;
#X obj 1116 126 metro 2000;
#X obj 1143 178 delay 1000;
#X obj 704 198 random 10000;
#X obj 637 171 metro 1000;
#X obj 637 139 tgl 19 0 empty empty empty 0 -10 0 12 #fcfcfc #000000 #000000 0 1;
#X obj 641 224 delay 5000;
#X obj 637 311 tgl 19 0 empty empty empty 0 -10 0 12 #fcfcfc #000000 #000000 0 1;
#X obj 723 251 random 10000;
#X obj 666 288 delay 5000;
#X msg 636 343 \$1 2000;
#X obj 634 375 line;
#X floatatom 632 405 5 0 0 0 - - - 0;
#X obj 467 423 loadbang;
#X obj 405 816 *~ 1;
#X obj 949 223 random 10000;
#X obj 882 196 metro 1000;
#X obj 882 164 tgl 19 0 empty empty empty 0 -10 0 12 #fcfcfc #000000 #000000 0 1;
#X obj 886 249 delay 5000;
#X obj 882 336 tgl 19 0 empty empty empty 0 -10 0 12 #fcfcfc #000000 #000000 0 1;
#X obj 968 276 random 10000;
#X obj 911 313 delay 5000;
#X msg 881 368 \$1 2000;
#X obj 879 400 line;
#X floatatom 877 430 5 0 0 0 - - - 0;
#X obj 854 731 *~;
#X obj 484 30 r button1 @hv_param;
#X obj 268 19 r ctrl @hv_param;
#X connect 0 0 1 0;
#X connect 0 0 33 0;
#X connect 1 0 4 0;
#X connect 1 0 29 0;
#X connect 2 0 3 0;
#X connect 2 0 13 0;
#X connect 3 0 1 1;
#X connect 3 0 9 0;
#X connect 4 0 5 0;
#X connect 4 0 2 0;
#X connect 5 0 4 1;
#X connect 6 0 5 1;
#X connect 7 0 8 0;
#X connect 8 0 20 0;
#X connect 9 0 10 0;
#X connect 11 0 12 0;
#X connect 12 0 8 1;
#X connect 13 0 14 0;
#X connect 13 0 18 0;
#X connect 15 0 17 2;
#X connect 16 0 12 0;
#X connect 17 0 16 0;
#X connect 18 0 17 0;
#X connect 19 0 13 1;
#X connect 19 0 15 0;
#X connect 20 0 27 0;
#X connect 21 0 24 0;
#X connect 22 0 37 0;
#X connect 24 0 20 1;
#X connect 25 0 20 2;
#X connect 26 0 27 1;
#X connect 27 0 101 0;
#X connect 28 0 6 0;
#X connect 28 1 30 0;
#X connect 29 0 28 0;
#X connect 30 0 5 1;
#X connect 31 0 36 0;
#X connect 32 0 33 0;
#X connect 33 0 19 0;
#X connect 33 0 31 0;
#X connect 33 0 35 0;
#X connect 34 0 21 0;
#X connect 35 0 46 0;
#X connect 36 0 34 0;
#X connect 37 0 20 2;
#X connect 38 0 39 0;
#X connect 38 0 40 0;
#X connect 39 0 42 0;
#X connect 40 0 41 0;
#X connect 41 0 42 1;
#X connect 42 0 44 0;
#X connect 42 0 48 0;
#X connect 43 0 38 0;
#X connect 46 0 33 1;
#X connect 46 0 38 1;
#X connect 46 0 47 0;
#X connect 48 0 26 0;
#X connect 49 0 83 0;
#X connect 50 0 112 0;
#X connect 51 0 72 0;
#X connect 51 0 77 0;
#X connect 52 0 65 0;
#X connect 52 0 66 0;
#X connect 53 0 49 0;
#X connect 54 0 81 0;
#X connect 55 0 82 0;
#X connect 57 0 73 0;
#X connect 57 0 78 0;
#X connect 58 0 67 0;
#X connect 58 0 68 0;
#X connect 59 0 74 0;
#X connect 59 0 79 0;
#X connect 60 0 69 0;
#X connect 60 0 70 0;
#X connect 61 0 75 0;
#X connect 61 0 80 0;
#X connect 62 0 71 0;
#X connect 63 0 51 0;
#X connect 64 0 63 0;
#X connect 65 0 76 0;
#X connect 66 0 57 0;
#X connect 67 0 76 0;
#X connect 68 0 59 0;
#X connect 69 0 76 0;
#X connect 70 0 61 0;
#X connect 71 0 76 0;
#X connect 72 0 76 0;
#X connect 73 0 76 0;
#X connect 74 0 76 0;
#X connect 75 0 76 0;
#X connect 76 0 50 1;
#X connect 77 0 52 0;
#X connect 78 0 58 0;
#X connect 79 0 60 0;
#X connect 80 0 62 0;
#X connect 81 0 83 0;
#X connect 82 0 83 0;
#X connect 83 0 50 0;
#X connect 84 0 82 1;
#X connect 85 0 81 1;
#X connect 86 0 49 1;
#X connect 87 0 88 0;
#X connect 88 0 64 0;
#X connect 88 0 89 0;
#X connect 89 0 64 0;
#X connect 90 0 93 1;
#X connect 91 0 90 0;
#X connect 91 0 93 0;
#X connect 92 0 91 0;
#X connect 93 0 94 0;
#X connect 93 0 96 0;
#X connect 93 0 95 0;
#X connect 94 0 97 0;
#X connect 95 0 96 1;
#X connect 96 0 94 0;
#X connect 97 0 98 0;
#X connect 98 0 99 0;
#X connect 99 0 101 1;
#X connect 100 0 43 0;
#X connect 101 0 23 0;
#X connect 101 0 23 1;
#X connect 102 0 105 1;
#X connect 103 0 102 0;
#X connect 103 0 105 0;
#X connect 104 0 103 0;
#X connect 105 0 106 0;
#X connect 105 0 108 0;
#X connect 105 0 107 0;
#X connect 106 0 109 0;
#X connect 107 0 108 1;
#X connect 108 0 106 0;
#X connect 109 0 110 0;
#X connect 110 0 111 0;
#X connect 111 0 112 1;
#X connect 112 0 56 0;
#X connect 112 0 56 1;
#X connect 113 0 32 0;
#X connect 113 0 92 0;
#X connect 113 0 104 0;
#X connect 113 0 87 0;
