#N canvas 867 57 450 307 12;
#X obj 86 249 print;
#X obj 86 61 comport /dev/cu.usbserial-0001 115200;
#X obj 86 135 oscparse;
#X obj 86 104 oscformat -f 1 on;
#X connect 1 0 3 0;
#X connect 2 0 0 0;
#X connect 3 0 2 0;
