#N canvas 471 113 450 300 12;
#X obj 132 251 print;
#X obj 86 61 comport /dev/cu.usbserial-0001 9600;
#X obj 127 168 unpackOSC;
#X obj 136 214 oscparse;
#X connect 1 0 2 0;
#X connect 2 0 3 0;
#X connect 3 0 0 0;
