#N canvas 0 1 1440 872 10;
#X obj 588 445 dac~;
#X obj 588 372 osc~;
#X obj 588 407 *~;
#X msg 716 330 1;
#X obj 650 406 *~;
#X obj 665 297 t b b;
#X msg 665 331 0 500;
#X obj 627 250 bng 15 250 50 0 empty empty empty 17 7 0 10 #fcfcfc #000000 #000000;
#X obj 588 332 line~;
#X obj 665 376 line~;
#X text 428 332 line adjusts left pitch;
#X obj 665 251 r Button1 @hv_param;
#X text 425 250 button1 triggers right envelope;
#X obj 787 307 r button1_press @hv_param;
#X obj 787 374 s led1 @hv_param;
#X connect 1 0 2 0;
#X connect 2 0 0 0;
#X connect 3 0 9 0;
#X connect 4 0 0 1;
#X connect 5 0 6 0;
#X connect 5 1 3 0;
#X connect 6 0 9 0;
#X connect 7 0 5 0;
#X connect 8 0 1 0;
#X connect 9 0 4 1;
#X connect 11 0 5 0;
#X connect 13 0 14 0;
