#N canvas 0 0 450 300 10;
#X obj 50 50 comport /dev/ttyUSB0 9600;
#X obj 50 100 print;
#X msg 50 150 clear;
#X obj 50 200 unpack A;
#X obj 50 250 route symbol number;
#X obj 50 300 packOSC /test;
#X obj 50 350 oscformat;
#X obj 50 400 netsend localhost 12345;
#X connect 0 0 2 0;
#X connect 0 0 1 0;
#X connect 0 0 3 0;
#X connect 3 0 4 0;
#X connect 4 0 5 0;
#X connect 5 0 6 0;
#X connect 6 0 7 0;
#X connect 7 0 8 0;
#X connect 8 0 2 0;
#X connect 8 1 9 0;
