#N canvas 602 115 495 552 12;
#X obj 56 352 dac~;
#X floatatom 156 120 5 0 0 0 - - - 0;
#X obj 159 226 mtof;
#X obj 159 193 + 60;
#X obj 159 160 * 2;
#X obj 131 258 osc~ 440;
#X obj 543 216 r Knob1 @hv_param;
#X obj 553 226 r Knob1 @hv_param;
#X obj 143 54 r Knob1 @hv_param;
#X connect 1 0 4 0;
#X connect 2 0 5 0;
#X connect 3 0 2 0;
#X connect 4 0 3 0;
#X connect 5 0 0 0;
#X connect 5 0 0 1;
#X connect 8 0 1 0;
